<svg width="196" height="154" viewBox="0 0 196 154" fill="none" xmlns="http://www.w3.org/2000/svg">
<mask id="mask0_1717_627061" style="mask-type:luminance" maskUnits="userSpaceOnUse" x="0" y="1" width="196" height="152">
<path d="M195.065 1.07129H0.935547V152.426H195.065V1.07129Z" fill="white"/>
</mask>
<g mask="url(#mask0_1717_627061)">
<g opacity="0.5">
<path opacity="0.4" fill-rule="evenodd" clip-rule="evenodd" d="M194.953 61.9683C194.841 63.977 194.619 65.9857 194.396 67.9944C194.173 69.8915 193.839 71.7886 193.405 73.7973C192.959 75.5828 192.525 77.4799 192.079 79.2654C191.634 80.8277 191.2 82.2784 190.643 83.8408C190.42 84.3987 190.197 85.0683 189.975 85.6263C189.641 86.519 189.306 87.4118 188.984 88.3045C188.649 89.0857 188.315 89.8668 187.992 90.648C187.324 92.0987 186.556 93.661 185.776 95.2234C184.562 97.5668 183.226 99.9103 181.789 102.254C181.121 103.481 180.353 104.597 179.573 105.713C178.905 106.718 178.137 107.722 177.469 108.726C175.586 111.293 173.704 113.748 171.488 116.203C169.161 118.881 166.622 121.56 163.96 124.126C159.639 128.255 154.995 131.938 150.017 135.275C131.642 147.65 109.726 153.676 87.7094 152.226C69.7799 151.11 54.8349 146.423 42.7742 139.627C34.3662 134.94 26.9494 128.802 20.6352 121.56C18.5304 119.216 16.6484 116.649 14.8777 114.083C13.107 111.851 11.6704 109.507 10.3452 107.052C9.78838 106.16 9.35406 105.155 8.9086 104.151C8.35178 103.035 7.8061 101.919 7.36065 100.803C7.24928 100.691 7.24928 100.58 7.13792 100.468C6.24701 98.348 5.4786 96.2277 4.69906 94.219C3.70792 91.206 2.81701 88.1929 2.26019 85.0683C2.03746 83.6176 1.81474 82.1668 1.59201 80.8277C1.25792 78.261 1.03519 75.806 0.923828 73.2393C0.923828 71.5654 0.923828 69.7799 1.03519 68.2176C1.25792 64.7582 1.81474 61.4103 2.69451 58.1741C2.80588 57.7277 3.0286 57.2813 3.13997 56.835C3.25133 56.5002 3.36269 56.0538 3.58542 55.719C4.03088 54.3799 4.68792 53.0408 5.3561 51.8132C5.69019 51.2552 5.91292 50.6973 6.24701 50.2509C6.5811 49.8045 6.80383 49.3581 7.13792 49.0234C7.36065 48.577 7.58338 48.2422 7.91747 47.9074C8.47428 47.1263 9.13133 46.4567 9.68815 45.7871C10.0222 45.3408 10.3563 45.006 10.7906 44.5596C11.5702 43.7784 12.2272 42.9973 13.0068 42.3277C14.4434 40.9886 15.88 39.761 17.4391 38.5335L17.5504 38.4219C18.7643 37.5292 20.1006 36.6364 21.4259 35.8552C21.6486 35.7437 21.76 35.6321 21.9827 35.5205C22.6508 35.0741 23.4192 34.7393 24.1987 34.4045C24.8669 34.0697 25.524 33.735 26.3035 33.5118C28.7424 32.5074 31.1701 31.7263 33.7203 31.2799C40.8031 29.8292 48.3312 29.9408 56.4051 30.4987C67.1406 31.1683 78.7669 32.7306 91.8187 31.9494C92.8099 31.9494 93.7008 31.8379 94.5806 31.7263C95.026 31.7263 95.3601 31.6147 95.7944 31.5031H95.9058C97.0083 31.2799 98.2333 31.0567 99.3358 30.7219C99.5585 30.6103 99.7812 30.6103 100.004 30.4987C100.115 30.4987 100.995 30.1639 101.329 30.0523C101.441 30.0523 102.22 29.7176 102.543 29.606C102.766 29.4944 103.868 29.048 103.98 29.048C104.971 28.6016 105.862 28.1552 106.853 27.7089C116.809 22.4639 124.894 13.5476 134.738 8.30264C137.946 6.51713 141.264 5.28959 144.806 4.50843C145.028 4.50843 145.251 4.39684 145.474 4.39684C146.142 4.28524 146.91 4.17365 147.69 4.06206C148.904 3.95046 150.129 3.83887 151.231 3.83887C151.677 3.83887 152.011 3.83887 152.445 3.83887C153.225 3.83887 153.993 3.95046 154.773 3.95046H154.884C156.098 4.06206 157.434 4.28524 158.759 4.62003H158.871C159.316 4.73162 159.751 4.84322 160.307 4.95481C162.189 5.40119 164.071 5.95916 165.842 6.62872C166.065 6.74032 166.288 6.74032 166.51 6.85191C166.956 7.0751 167.501 7.18669 167.947 7.40988C168.392 7.63307 168.838 7.74466 169.272 7.96785C170.486 8.52582 171.6 9.08379 172.702 9.75336C184.329 16.6722 192.848 31.8379 194.619 50.3513C194.73 51.1325 194.73 51.9137 194.841 52.8064C195.175 55.8306 195.175 58.9552 194.953 61.9683Z" fill="url(#paint0_linear_1717_627061)"/>
</g>
<mask id="mask1_1717_627061" style="mask-type:alpha" maskUnits="userSpaceOnUse" x="1" y="-4" width="195" height="157">
<path fill-rule="evenodd" clip-rule="evenodd" d="M195.029 61.9682C194.917 63.9769 194.695 65.9856 194.472 67.9943C194.249 69.8914 193.915 71.7885 193.481 73.7972C193.035 75.5827 192.601 77.4798 192.156 79.2653C191.71 80.8276 191.276 82.2783 190.719 83.8406C190.496 84.3986 190.274 85.0682 190.051 85.6262C189.717 86.5189 189.383 87.4117 189.06 88.3044C188.726 89.0856 188.391 89.8667 188.069 90.6479C187.4 92.0986 186.632 93.6609 185.852 95.2233C184.639 97.5667 183.302 99.9102 181.866 102.254C181.197 103.481 180.429 104.597 179.649 105.713C178.981 106.717 178.213 107.722 177.545 108.726C175.663 111.293 173.781 113.748 171.564 116.203C169.237 118.881 166.698 121.559 164.036 124.126C159.715 128.255 155.072 131.938 150.094 135.274C131.719 147.65 109.802 153.676 87.7856 152.226C69.8561 151.11 54.9111 146.423 42.8504 139.627C34.4424 134.94 27.0256 128.802 20.7114 121.559C18.6066 119.216 16.7245 116.649 14.9539 114.083C13.1832 111.851 11.7466 109.507 10.4214 107.052C9.86455 106.159 9.43023 105.155 8.98478 104.151C8.42796 103.035 7.88227 101.919 7.43682 100.803C7.32546 100.691 7.32546 100.58 7.21409 100.468C6.32318 98.3479 5.55477 96.2276 4.77523 94.2189C3.78409 91.2059 2.89318 88.1928 2.33637 85.0682C2.11364 83.6175 1.89091 82.1667 1.66818 80.8276C1.33409 78.2609 1.11136 75.8059 1 73.2392C1 71.5653 1 69.7798 1.11136 68.2175C1.33409 64.758 1.89091 61.4102 2.77068 58.174C2.88205 57.7276 3.10477 57.2812 3.21614 56.8349C3.3275 56.5001 3.43887 56.0537 3.66159 55.7189C4.10705 54.3798 4.76409 53.0407 5.43227 51.8131C5.76637 51.2551 5.98909 50.6972 6.32318 50.2508C6.65727 49.8044 6.88 49.358 7.21409 49.0233C7.43682 48.5769 7.65955 48.2421 7.99364 47.9073C8.55046 47.1262 9.2075 46.4566 9.76432 45.787C10.0984 45.3406 10.4325 45.0059 10.8668 44.5595C11.6464 43.7783 12.3034 42.9972 13.083 42.3276C14.5195 40.9885 15.9561 39.7609 17.5152 38.5334L17.6266 38.4218C18.8405 37.5291 20.1768 36.6363 21.502 35.8551C21.7248 35.7435 21.8361 35.632 22.0589 35.5204C22.727 35.074 23.4954 34.7392 24.2749 34.4044C24.9431 34.0696 25.6001 33.7348 26.3797 33.5117C28.8186 32.5073 31.2463 31.7262 33.7965 31.2798C40.8792 29.8291 48.4074 29.9406 56.4813 30.4986C67.2167 31.1682 78.8431 2.7305 91.8949 1.94934C92.886 1.94934 93.777 1.83775 94.6567 1.72615C95.1022 1.72615 95.4363 1.61456 95.8706 1.50296H95.982C97.0845 1.27978 98.3095 1.05659 99.412 0.721805C99.6347 0.610211 99.8574 0.610211 100.08 0.498617C100.192 0.498617 101.071 0.163834 101.405 0.0522401C101.517 0.0522401 102.296 -0.282542 102.619 -0.394136C102.842 -0.50573 103.944 -0.952106 104.056 -0.952106C105.047 -1.39848 105.938 -1.84486 106.929 -2.29124C116.885 -7.53616 124.97 13.5475 134.814 8.30253C138.022 6.51702 141.34 5.28949 144.882 4.50833C145.104 4.50833 145.327 4.39674 145.55 4.39674C146.218 4.28514 146.987 4.17355 147.766 4.06195C148.98 3.95036 150.205 3.83876 151.307 3.83876C151.753 3.83876 152.087 3.83876 152.521 3.83876C153.301 3.83876 154.069 3.95036 154.849 3.95036H154.96C156.174 4.06195 157.51 4.28514 158.836 4.61992H158.947C159.392 4.73152 159.827 4.84311 160.384 4.95471C162.266 5.40108 164.148 5.95905 165.918 6.62862C166.141 6.74021 166.364 6.74021 166.587 6.85181C167.032 7.075 167.578 7.18659 168.023 7.40978C168.469 7.63297 168.914 7.74456 169.348 7.96775C170.562 8.52572 171.676 9.08369 172.778 9.75326C184.405 16.6721 192.924 31.8377 194.695 50.3512C194.806 51.1324 194.806 51.9135 194.917 52.8063C195.252 55.8305 195.252 58.9551 195.029 61.9682Z" fill="white"/>
</mask>
<g mask="url(#mask1_1717_627061)">
<path d="M61.8696 132.318H45.9473V156.374H61.8696V132.318Z" fill="#E6CDBB"/>
<path d="M149.396 132.318H133.486V156.374H149.396V132.318Z" fill="#E6CDBB"/>
<path d="M61.8696 132.318H45.9473V156.374H61.8696V132.318Z" stroke="#133F5D" stroke-width="0.4791" stroke-linecap="round" stroke-linejoin="round"/>
<path d="M149.396 132.318H133.486V156.374H149.396V132.318Z" stroke="#133F5D" stroke-width="0.4791" stroke-linecap="round" stroke-linejoin="round"/>
<path d="M98.4384 116.673H97.1599C79.5717 116.673 65.3281 102.322 65.3281 84.5941V43.2112C65.3281 25.1078 79.83 10.4854 97.7927 10.4854C115.755 10.4854 130.257 25.0949 130.257 43.2112V84.5941C130.27 102.309 116.027 116.673 98.4384 116.673Z" fill="#425367"/>
<path d="M126.164 116.673H69.3057C66.9942 116.673 65.1992 114.861 65.1992 112.532V43.2112C65.1992 25.1078 79.7011 10.4854 97.6638 10.4854C115.626 10.4854 130.257 25.2243 130.257 43.3406V112.661C130.27 114.861 128.475 116.673 126.164 116.673Z" stroke="#133F5D" stroke-width="0.4791" stroke-linecap="round" stroke-linejoin="round"/>
<path d="M111.146 68.9502H84.957V90.0298H111.133V68.9502H111.146Z" fill="#E6CDBB"/>
<path d="M111.146 68.9502H84.957V90.0298H111.133V68.9502H111.146Z" stroke="#133F5D" stroke-width="0.4791" stroke-linecap="round" stroke-linejoin="round"/>
<path d="M119.359 60.5384C119.359 60.5384 123.982 59.762 125.002 52.2566C126.022 44.7513 124.615 42.5514 121.283 43.3279L122.316 27.5537H73.8L75.2076 42.422C75.2076 42.422 71.2303 42.1632 71.2303 47.2099C71.2303 52.2566 70.8428 59.4902 76.486 60.7842C76.486 60.7842 79.185 79.017 96.8894 81.0875C96.9023 80.7122 115.252 81.2298 119.359 60.5384Z" fill="#E6CDBB"/>
<path d="M119.359 60.5384C119.359 60.5384 123.982 59.762 125.002 52.2566C126.022 44.7513 124.615 42.5514 121.283 43.3279L122.316 27.5537H73.8L75.2076 42.422C75.2076 42.422 71.2303 42.1632 71.2303 47.2099C71.2303 52.2566 70.8428 59.4902 76.486 60.7842C76.486 60.7842 79.185 79.017 96.8894 81.0875C96.9023 80.7122 115.252 81.2298 119.359 60.5384Z" stroke="#133F5D" stroke-width="0.4791" stroke-linecap="round" stroke-linejoin="round"/>
<path d="M111.145 85.759L140.277 91.5821C140.277 91.5821 148.49 95.5936 149.523 104.898L152.352 143.434H43L46.4608 103.474C46.4608 103.474 47.2356 96.4865 54.9321 92.2162L84.9689 85.7461C84.9689 85.7461 84.9689 89.1106 98.3214 89.1106C111.661 89.1235 111.145 85.759 111.145 85.759Z" fill="#C9DCE8"/>
<path d="M111.145 85.7598L136.3 90.8065C141.311 91.7123 145.675 94.9473 147.974 99.4764C148.749 101.159 149.381 102.97 149.511 104.911L152.339 143.447H43L46.4608 103.488C46.8482 101.417 47.6101 99.347 48.9015 97.6648C51.213 94.5591 54.5447 92.3593 58.2767 91.5829L84.9689 85.7598C84.9689 85.7598 84.9689 89.1242 98.3215 89.1242C111.661 89.1242 111.145 85.7598 111.145 85.7598Z" stroke="#133F5D" stroke-width="0.4791" stroke-linecap="round" stroke-linejoin="round"/>
<path d="M85.0867 86.0176L71.2305 88.6056C71.2305 88.6056 80.4765 116.673 92.6669 101.921C94.8493 99.2037 97.5482 88.8644 97.5482 88.8644C97.5482 88.8644 88.8187 89.7702 85.0867 86.0176Z" fill="#A5CE5D"/>
<path d="M111.147 86.0176L123.984 88.6056C123.984 88.6056 114.737 116.673 102.547 101.921C100.494 99.3331 97.7949 88.9938 97.7949 88.9938C97.7949 88.9938 107.558 89.7702 111.147 86.0176Z" fill="#A5CE5D"/>
<path d="M85.0867 86.0176L71.2305 88.6056C71.2305 88.6056 80.4765 116.673 92.6669 101.921C94.8493 99.2037 97.5482 88.8644 97.5482 88.8644C97.5482 88.8644 88.8187 89.7702 85.0867 86.0176Z" stroke="#133F5D" stroke-width="0.4791" stroke-linecap="round" stroke-linejoin="round"/>
<path d="M111.147 86.0176L123.984 88.6056C123.984 88.6056 114.737 116.673 102.547 101.921C100.494 99.3331 97.7949 88.9938 97.7949 88.9938C97.7949 88.9938 107.558 89.7702 111.147 86.0176Z" stroke="#133F5D" stroke-width="0.4791" stroke-linecap="round" stroke-linejoin="round"/>
<path d="M67.2529 124.941L64.9414 143.562" stroke="#133F5D" stroke-width="0.4791" stroke-linecap="round" stroke-linejoin="round"/>
<path d="M129.883 124.941L132.194 143.562" stroke="#133F5D" stroke-width="0.4791" stroke-linecap="round" stroke-linejoin="round"/>
<path d="M110.76 27.0365C100.364 36.3534 87.0119 41.646 73.1557 41.9048L70.5859 25.613C70.5859 25.626 106.524 15.4032 110.76 27.0365Z" fill="#425367"/>
<path d="M75.207 42.176C88.3013 40.7525 100.621 35.447 110.758 27.0488" stroke="#133F5D" stroke-width="0.4791" stroke-linecap="round" stroke-linejoin="round"/>
<path d="M109.607 25.3676C109.607 25.3676 110.124 38.0361 120.778 43.3416C120.778 43.3416 123.98 42.3064 124.109 36.3539C124.238 31.4366 125.517 23.6854 121.927 23.556C118.324 23.4266 109.607 25.3676 109.607 25.3676Z" fill="#425367"/>
<path d="M121.025 43.3416C114.866 40.2359 110.759 34.154 109.984 27.3086" stroke="#133F5D" stroke-width="0.4791" stroke-linecap="round" stroke-linejoin="round"/>
<path d="M91.3748 72.1843C87.0101 71.0197 80.5921 67.5259 77.2604 65.5848C75.7237 64.679 71.8755 62.9968 71.2298 61.3145C64.9409 45.0228 72.0046 34.153 74.9489 45.1522C76.0982 49.4225 74.9489 51.7517 74.9489 51.7517" stroke="#133F5D" stroke-width="1.4374" stroke-miterlimit="10"/>
<path d="M91.3764 75.4066C93.1455 75.4066 94.5789 73.9573 94.5789 72.1716C94.5789 70.3858 93.1455 68.9365 91.3764 68.9365C89.6072 68.9365 88.1738 70.3858 88.1738 72.1716C88.1738 73.9573 89.6072 75.4066 91.3764 75.4066Z" fill="#133F5D"/>
<path d="M75.0777 54.975C75.93 54.975 76.6144 53.5257 76.6144 51.7399C76.6144 49.9542 75.93 48.5049 75.0777 48.5049C74.2254 48.5049 73.541 49.9542 73.541 51.7399C73.541 53.5257 74.2254 54.975 75.0777 54.975Z" fill="#133F5D"/>
<path d="M143.609 100.239L140.781 151.586H54.5449L51.7168 100.239H143.609Z" fill="white" stroke="#133F5D" stroke-width="0.4791" stroke-linecap="round" stroke-linejoin="round"/>
<path d="M107.427 125.977C107.427 131.412 103.062 135.812 97.6774 135.812C92.2925 135.812 87.9277 131.412 87.9277 125.977C87.9277 120.542 92.2925 116.143 97.6774 116.143C103.062 116.156 107.427 120.555 107.427 125.977Z" fill="white"/>
<path d="M97.6664 136.072C92.1523 136.072 87.5293 131.542 87.5293 125.849C87.5293 120.284 92.0232 115.626 97.6664 115.626C103.18 115.626 107.803 120.155 107.803 125.849C107.803 131.542 103.323 136.072 97.6664 136.072ZM97.6664 116.415C92.5268 116.415 88.2912 120.686 88.2912 125.862C88.2912 131.038 92.5268 135.308 97.6664 135.308C102.806 135.308 107.042 131.038 107.042 125.862C107.042 120.686 102.806 116.415 97.6664 116.415Z" fill="#4294D0"/>
<path fill-rule="evenodd" clip-rule="evenodd" d="M96.6446 131.929C94.9788 130.506 94.0748 128.436 94.0748 126.365C94.0748 125.459 94.3331 124.683 94.7205 123.907C95.1079 123.13 95.7536 122.483 96.5155 122.224C97.4194 121.836 98.3104 121.965 99.2144 122.483C99.6018 122.742 99.9892 123.13 100.247 123.518C100.506 123.907 100.635 124.424 100.635 124.812C100.635 125.718 100.247 126.624 99.6018 127.271C98.9561 127.918 98.0651 128.177 97.1611 128.306C96.1281 128.306 94.9788 127.918 94.2039 127.142C92.9255 125.977 92.6672 124.036 93.5583 122.483C93.8165 121.965 94.3331 121.577 94.8367 121.189C95.8698 120.542 97.1482 120.283 98.2975 120.542C99.9634 120.801 101.384 121.836 102.146 123.26C101.371 121.836 99.9634 120.801 98.2975 120.413C97.0191 120.154 95.8569 120.413 94.7076 121.06C94.191 121.448 93.6745 121.836 93.4291 122.354C93.0417 122.871 92.9126 123.518 92.7835 124.165C92.6543 125.33 93.1709 126.495 93.9328 127.271C94.8367 128.047 95.8569 128.565 97.0191 128.436C98.0522 128.436 98.9432 128.047 99.718 127.4C100.493 126.753 100.867 125.718 100.867 124.683C100.867 124.165 100.738 123.648 100.48 123.13C100.222 122.612 99.8342 122.224 99.4468 121.965C98.5429 121.318 97.3936 121.318 96.3605 121.577C95.4566 121.965 94.6947 122.612 94.1781 123.518C93.6616 124.424 93.5324 125.33 93.4033 126.236C93.4033 128.565 94.4364 130.894 96.2314 132.318L96.6446 131.929Z" fill="#4294D0"/>
<path d="M96.2574 132.577C94.4624 131.024 93.3002 128.954 93.3002 126.624C92.7837 125.848 92.5254 124.942 92.5254 124.036C92.5254 123.389 92.7837 122.742 93.1711 122.225C93.5585 121.707 93.9459 121.19 94.5786 120.931C95.3535 120.413 96.2445 120.154 97.2776 120.154C97.665 120.154 97.9232 120.154 98.3106 120.284C99.9765 120.543 101.397 121.707 102.288 123.131L102.03 123.26C101.255 121.837 99.8474 120.931 98.3106 120.542C98.0524 120.542 97.7941 120.413 97.4067 120.413C96.5028 120.413 95.6117 120.672 94.8369 121.19C94.3204 121.578 93.933 121.966 93.6876 122.484C93.4293 123.001 93.1711 123.519 93.1711 124.166C93.1711 124.813 93.3002 125.33 93.5585 125.848C93.6876 125.072 93.8167 124.295 94.2042 123.519C94.7207 122.613 95.4826 121.966 96.3865 121.578C97.4196 121.19 98.698 121.319 99.5891 121.966C100.106 122.225 100.493 122.742 100.738 123.131C100.997 123.648 101.126 124.166 101.126 124.683C101.126 125.719 100.609 126.754 99.8474 127.401C99.0725 128.048 98.0524 128.436 97.0193 128.436C96.1153 128.436 95.2243 128.177 94.4495 127.66C94.7078 129.342 95.5988 130.765 96.8902 131.801L97.0193 131.93L96.2574 132.577ZM93.6876 127.013C93.8167 128.954 94.8369 130.895 96.2574 132.189L96.5157 131.93C95.1081 130.765 94.3333 129.212 94.075 127.401C93.9459 127.401 93.9459 127.271 93.8167 127.271C93.6876 127.142 93.6876 127.142 93.6876 127.013ZM97.5358 121.707C98.1815 121.707 98.6851 121.837 99.2017 122.225C99.5891 122.484 99.9765 122.872 100.235 123.26C100.493 123.648 100.622 124.166 100.622 124.683C100.622 125.589 100.235 126.495 99.5891 127.142C98.9434 127.66 98.1815 128.048 97.4067 128.177C98.1815 128.048 98.9434 127.789 99.5891 127.271C100.364 126.624 100.738 125.719 100.738 124.683C100.738 124.166 100.609 123.648 100.351 123.26C100.093 122.872 99.7053 122.484 99.3179 122.095C98.8014 121.707 98.1686 121.578 97.5229 121.578C97.1355 121.578 96.7481 121.707 96.3736 121.837C95.4697 122.225 94.7078 122.872 94.3204 123.648C93.933 124.425 93.6747 125.33 93.6747 126.236C93.8038 126.366 93.933 126.495 93.933 126.624C93.933 126.495 93.933 126.366 93.933 126.366C93.933 125.46 94.1912 124.554 94.5786 123.778C94.966 123.001 95.6117 122.354 96.5028 121.966C96.7739 121.837 97.1613 121.707 97.5358 121.707ZM99.3437 127.013C99.9894 126.495 100.377 125.589 100.377 124.683C100.377 124.295 100.248 123.778 99.9894 123.389C99.7311 123.001 99.4729 122.742 99.0855 122.484C98.3106 121.966 97.4196 121.966 96.5157 122.225C95.7409 122.484 95.1081 123.131 94.7207 123.907C94.3333 124.683 94.075 125.46 94.2042 126.366C94.2042 126.624 94.2042 126.754 94.2042 127.013C94.979 127.66 95.9991 128.048 97.0322 128.048C97.9232 127.918 98.6981 127.53 99.3437 127.013Z" fill="#4294D0"/>
<path fill-rule="evenodd" clip-rule="evenodd" d="M105.63 123.389L102.673 124.036L102.027 122.742L105.63 123.389Z" fill="#A4CC5C"/>
<path fill-rule="evenodd" clip-rule="evenodd" d="M102.028 122.742L101.383 123.777L102.416 123.648L102.028 122.742Z" fill="#A4CC5C"/>
<path fill-rule="evenodd" clip-rule="evenodd" d="M101.899 122.614L101.383 121.708L105.618 123.39L101.899 122.614Z" fill="#A4CC5C"/>
<path fill-rule="evenodd" clip-rule="evenodd" d="M93.4277 126.366C93.5569 126.625 93.8151 126.883 94.0734 127.142V126.754C93.8151 126.495 93.686 126.366 93.5569 126.236L93.4277 125.978C93.4277 126.107 93.4277 126.236 93.4277 126.366Z" fill="#4294D0"/>
<path d="M143.61 100.239L140.782 151.586H65.3281C84.1948 150.163 128.604 146.669 132.323 141.622C136.559 135.941 143.61 100.239 143.61 100.239Z" fill="url(#paint1_linear_1717_627061)"/>
</g>
</g>
<defs>
<linearGradient id="paint0_linear_1717_627061" x1="69.4164" y1="14.4312" x2="133.397" y2="177.872" gradientUnits="userSpaceOnUse">
<stop stop-color="white" stop-opacity="0"/>
<stop offset="1" stop-color="white"/>
</linearGradient>
<linearGradient id="paint1_linear_1717_627061" x1="156.313" y1="166.911" x2="108.556" y2="129.303" gradientUnits="userSpaceOnUse">
<stop offset="0.0026" stop-color="#9FCCE8" stop-opacity="0.3"/>
<stop offset="1" stop-color="#297EB8" stop-opacity="0"/>
</linearGradient>
</defs>
</svg>
