<svg width="13" height="15" viewBox="0 0 13 15" fill="none" xmlns="http://www.w3.org/2000/svg">
<g clip-path="url(#clip0_1738_4031)">
<path opacity="0.3" fill-rule="evenodd" clip-rule="evenodd" d="M10.1389 10.2396C9.45054 10.295 8.7578 10.2536 8.08093 10.1166C6.99332 9.64328 5.97283 9.02864 5.0459 8.28857C3.81687 7.60171 2.39134 7.35179 1.00195 7.57959C1.18191 8.52942 1.58608 9.42251 2.18091 10.1846C3.25355 11.4979 4.58 12.5815 6.08093 13.3706C6.11238 13.3847 6.14644 13.392 6.18091 13.392C6.21538 13.392 6.24944 13.3847 6.28088 13.3706C7.76845 12.6033 9.08183 11.5373 10.1389 10.2396Z" fill="white"/>
<path d="M11.8132 4.41467C11.8292 3.59867 11.7972 2.93563 11.7752 2.59863C11.772 2.5668 11.7621 2.53606 11.7462 2.5083C11.7303 2.48055 11.7087 2.45643 11.6828 2.43756C11.657 2.4187 11.6275 2.40551 11.5962 2.3988C11.5649 2.3921 11.5325 2.39206 11.5012 2.39868C11.4262 2.41168 11.3512 2.42363 11.2772 2.43463C10.8252 2.50369 10.3685 2.53716 9.91123 2.53467C9.52784 2.53187 9.14524 2.4984 8.76719 2.43463C8.45316 2.38189 8.14369 2.30533 7.84128 2.20563C7.59764 2.12405 7.35973 2.0262 7.12925 1.91266C6.95681 1.82667 6.78983 1.73015 6.62925 1.62366C6.57025 1.58366 6.51225 1.54367 6.45725 1.50067C6.40864 1.44951 6.3454 1.41455 6.27622 1.40063C6.20827 1.40289 6.14327 1.42869 6.09226 1.47363C6.00126 1.54163 5.90918 1.60665 5.81418 1.67365C5.64204 1.7825 5.46298 1.88004 5.27817 1.96564C5.03752 2.078 4.78932 2.17327 4.53525 2.25067C4.22277 2.34526 3.90342 2.4158 3.58017 2.46167C3.19239 2.51696 2.80093 2.54137 2.40928 2.53467C1.94288 2.52621 1.47783 2.48175 1.01828 2.40167C0.987429 2.39505 0.955448 2.3949 0.924534 2.40125C0.89362 2.40759 0.864352 2.42024 0.838597 2.43848C0.812841 2.45671 0.791249 2.48009 0.774998 2.50714C0.758747 2.53419 0.74824 2.56434 0.744236 2.59564C0.670236 3.70464 0.478199 8.34064 2.2562 10.3796C3.32922 11.6926 4.65559 12.7762 6.15622 13.5657C6.18773 13.5796 6.22177 13.5867 6.2562 13.5867C6.29063 13.5867 6.32466 13.5796 6.35617 13.5657C7.8635 12.7859 9.19177 11.7004 10.2562 10.3787C10.8501 9.60903 11.2538 8.70991 11.4342 7.75464" stroke="white" stroke-linecap="round" stroke-linejoin="round"/>
<path d="M4.16016 7.41461L5.81323 9.06763L8.94617 5.93457" stroke="white" stroke-linecap="round" stroke-linejoin="round"/>
</g>
<defs>
<clipPath id="clip0_1738_4031">
<rect width="12.434" height="13.487" fill="white" transform="translate(0.0332031 0.756592)"/>
</clipPath>
</defs>
</svg>
