<svg width="16" height="17" viewBox="0 0 16 17" fill="none" xmlns="http://www.w3.org/2000/svg">
<g clip-path="url(#clip0_1724_671908)">
<rect opacity="0.5" x="0.0374989" y="0.537499" width="15.925" height="15.925" stroke="white" stroke-width="0.0749979"/>
<g opacity="0.5">
<line x1="7.97109" y1="0.5" x2="7.97109" y2="16.5" stroke="white" stroke-width="0.0749979"/>
<line x1="10.7045" y1="0.5" x2="10.7045" y2="16.5" stroke="white" stroke-width="0.0749979"/>
<line x1="5.37051" y1="0.5" x2="5.37051" y2="16.5" stroke="white" stroke-width="0.0749979"/>
<line x1="16" y1="8.47109" x2="4.29153e-05" y2="8.47109" stroke="white" stroke-width="0.0749979"/>
<line x1="16" y1="11.2045" x2="4.29153e-05" y2="11.2045" stroke="white" stroke-width="0.0749979"/>
<line x1="16" y1="5.87051" x2="4.29153e-05" y2="5.87051" stroke="white" stroke-width="0.0749979"/>
<path d="M16.0039 16.5L0.00394552 0.500007" stroke="white" stroke-width="0.0749979"/>
<path d="M0.00390625 16.5L16.0039 0.500008" stroke="white" stroke-width="0.0749637"/>
</g>
<g opacity="0.5">
<ellipse cx="8.00031" cy="8.50032" rx="7.33331" ry="7.33333" stroke="white" stroke-width="0.0749979"/>
<ellipse cx="8.00032" cy="8.50032" rx="3.33332" ry="3.33333" stroke="white" stroke-width="0.0749979"/>
<rect x="1.33398" y="1.83301" width="13.3333" height="13.3333" rx="0.999972" stroke="white" stroke-width="0.0749979" stroke-linejoin="round"/>
<rect x="2" y="1.16699" width="12" height="14.6667" rx="0.999972" stroke="white" stroke-width="0.0749979" stroke-linejoin="round"/>
<rect x="15.334" y="2.5" width="12" height="14.6666" rx="0.999972" transform="rotate(90 15.334 2.5)" stroke="white" stroke-width="0.0749979" stroke-linejoin="round"/>
</g>
</g>
<defs>
<clipPath id="clip0_1724_671908">
<rect width="16" height="16" fill="white" transform="translate(0 0.5)"/>
</clipPath>
</defs>
</svg>
