<svg width="16" height="16" viewBox="0 0 16 16" fill="none" xmlns="http://www.w3.org/2000/svg">
<g clip-path="url(#clip0_1724_664011)">
<rect opacity="0.5" x="0.0374989" y="0.0374989" width="15.925" height="15.925" stroke="white" stroke-width="0.0749979"/>
<g opacity="0.5">
<line x1="7.97109" y1="-1.63913e-09" x2="7.97109" y2="16" stroke="white" stroke-width="0.0749979"/>
<line x1="10.7035" y1="-1.63913e-09" x2="10.7035" y2="16" stroke="white" stroke-width="0.0749979"/>
<line x1="5.37148" y1="-1.63913e-09" x2="5.37148" y2="16" stroke="white" stroke-width="0.0749979"/>
<line x1="16" y1="7.97109" x2="4.29153e-05" y2="7.97109" stroke="white" stroke-width="0.0749979"/>
<line x1="16" y1="10.7045" x2="4.29153e-05" y2="10.7045" stroke="white" stroke-width="0.0749979"/>
<line x1="16" y1="5.37051" x2="4.29153e-05" y2="5.37051" stroke="white" stroke-width="0.0749979"/>
<path d="M16.0039 16L0.00394552 6.90505e-06" stroke="white" stroke-width="0.0749979"/>
<path d="M0.00390625 16L16.0039 8.20312e-06" stroke="white" stroke-width="0.0749637"/>
</g>
<g opacity="0.5">
<ellipse cx="7.99933" cy="8.00032" rx="7.33331" ry="7.33333" stroke="white" stroke-width="0.0749979"/>
<ellipse cx="7.99934" cy="8.00032" rx="3.33332" ry="3.33333" stroke="white" stroke-width="0.0749979"/>
<rect x="1.33203" y="1.33301" width="13.3333" height="13.3333" rx="0.999972" stroke="white" stroke-width="0.0749979" stroke-linejoin="round"/>
<rect x="2" y="0.666992" width="12" height="14.6667" rx="0.999972" stroke="white" stroke-width="0.0749979" stroke-linejoin="round"/>
<rect x="15.332" y="2" width="12" height="14.6666" rx="0.999972" transform="rotate(90 15.332 2)" stroke="white" stroke-width="0.0749979" stroke-linejoin="round"/>
</g>
</g>
<defs>
<clipPath id="clip0_1724_664011">
<rect width="16" height="16" fill="white"/>
</clipPath>
</defs>
</svg>
