<svg width="25" height="15" viewBox="0 0 25 15" fill="none" xmlns="http://www.w3.org/2000/svg">
<path d="M23.741 1.43803H7.42158L6.42792 2.36796L5.4428 1.43803H0.988935C0.924646 1.43803 0.861002 1.44995 0.80162 1.47318C0.742239 1.49641 0.688195 1.53061 0.642785 1.57353C0.597375 1.61644 0.5614 1.66738 0.536894 1.72343C0.512389 1.77947 0.499862 1.83956 0.500001 1.90019V13.1001C0.499861 13.1607 0.512376 13.2207 0.536894 13.2767C0.561413 13.3326 0.597491 13.3835 0.642914 13.4263C0.688338 13.4691 0.742245 13.503 0.80162 13.5262C0.860996 13.5493 0.924696 13.5612 0.988935 13.5611H5.4428L6.42792 12.6311L7.42158 13.5611H23.741C23.8058 13.562 23.8702 13.5509 23.9304 13.5281C23.9905 13.5054 24.0454 13.4714 24.0915 13.4285C24.1377 13.3856 24.1743 13.3345 24.1994 13.2781C24.2244 13.2217 24.2373 13.1613 24.2373 13.1001V1.90019C24.2373 1.83901 24.2244 1.77841 24.1994 1.72196C24.1744 1.66552 24.1377 1.61431 24.0915 1.57133C24.0454 1.52835 23.9905 1.49434 23.9304 1.47147C23.8702 1.44861 23.8059 1.43723 23.741 1.43803Z" stroke="#4198D3" stroke-linecap="round" stroke-linejoin="round"/>
<path d="M6.43062 5.03398C6.33293 5.03379 6.23744 5.00645 6.15631 4.95513C6.07519 4.9038 6.01206 4.83082 5.97482 4.74565C5.93758 4.66049 5.92793 4.56694 5.94712 4.47661C5.96631 4.38628 6.01337 4.3034 6.08253 4.23833C6.15168 4.17326 6.23977 4.12879 6.3356 4.11089C6.43143 4.09299 6.5308 4.10244 6.62104 4.13774C6.71128 4.17304 6.7884 4.23276 6.84266 4.30938C6.89691 4.38599 6.92577 4.47604 6.92577 4.56816C6.92577 4.62944 6.913 4.69003 6.8881 4.74663C6.86319 4.80323 6.82665 4.85471 6.78065 4.898C6.73465 4.94128 6.68008 4.97547 6.62 4.99883C6.55993 5.02219 6.4956 5.03412 6.43062 5.03398V5.03398Z" fill="#4198D3" stroke="#4195D5" stroke-width="0.5"/>
<path d="M6.43062 10.7652C6.33293 10.765 6.23744 10.7374 6.15631 10.6861C6.07519 10.6348 6.01206 10.5618 5.97482 10.4766C5.93758 10.3914 5.92793 10.2979 5.94712 10.2076C5.96631 10.1172 6.01337 10.0344 6.08253 9.96929C6.15168 9.90422 6.23977 9.85975 6.3356 9.84185C6.43143 9.82395 6.5308 9.8334 6.62104 9.8687C6.71128 9.904 6.7884 9.96372 6.84266 10.0403C6.89691 10.1169 6.92577 10.207 6.92577 10.2991C6.92577 10.3604 6.913 10.421 6.8881 10.4776C6.86319 10.5342 6.82665 10.5857 6.78065 10.629C6.73465 10.6722 6.68008 10.7064 6.62 10.7298C6.55993 10.7531 6.4956 10.7653 6.43062 10.7652V10.7652Z" fill="#4198D3" stroke="#4195D5" stroke-width="0.5"/>
<path d="M6.43082 7.90018C6.33282 7.90018 6.23694 7.87268 6.15547 7.82132C6.07401 7.76996 6.01066 7.697 5.97321 7.61161C5.93576 7.52621 5.92592 7.4322 5.94512 7.34159C5.96431 7.25097 6.01167 7.16784 6.08104 7.10257C6.15041 7.0373 6.23863 6.99279 6.33476 6.97489C6.4309 6.95698 6.5305 6.96649 6.62098 7.00199C6.71145 7.03749 6.78882 7.09742 6.84311 7.17435C6.8974 7.25128 6.92617 7.34171 6.92596 7.43412C6.92568 7.5578 6.87343 7.67634 6.78059 7.76371C6.68775 7.85107 6.56198 7.90018 6.43082 7.90018V7.90018Z" fill="#4198D3" stroke="#4195D5" stroke-width="0.5"/>
<path opacity="0.3" fill-rule="evenodd" clip-rule="evenodd" d="M19.8045 13.5619H7.42158L6.42792 12.632L5.4428 13.5619H0.988935C0.924696 13.562 0.860996 13.5501 0.80162 13.527C0.742245 13.5039 0.688338 13.47 0.642914 13.4271C0.597491 13.3843 0.561413 13.3335 0.536894 13.2775C0.512376 13.2215 0.499861 13.1615 0.500001 13.101V9.65101C0.793748 9.50201 1.11724 9.34594 1.48628 9.17494C2.57376 8.76926 3.73893 8.58177 4.90752 8.62465C6.07612 8.66752 7.22234 8.93984 8.2731 9.42396C9.57082 10.3007 10.9857 11.0118 12.481 11.539C14.6263 12.008 16.829 10.5308 19.4589 13.1388C19.5889 13.2685 19.7046 13.4103 19.8045 13.5619V13.5619Z" fill="#4198D3"/>
<path d="M15.7296 5.48203C15.7333 5.73718 15.687 5.99083 15.5929 6.23008C15.5103 6.43623 15.3855 6.62528 15.2259 6.78623C15.0767 6.93517 14.8961 7.05298 14.6957 7.13218C14.4939 7.21082 14.2777 7.25115 14.0594 7.25107C13.8327 7.25316 13.6077 7.21282 13.3977 7.13218C13.197 7.05342 13.0163 6.93556 12.8674 6.78623C12.7096 6.62632 12.5893 6.43673 12.5143 6.23008C12.426 5.98964 12.3829 5.73645 12.387 5.48203C12.3825 5.22366 12.4255 4.9665 12.5143 4.72202C12.5894 4.5139 12.7096 4.32305 12.8674 4.16123C13.0154 4.01045 13.1963 3.89158 13.3977 3.81309C13.6074 3.73153 13.8325 3.69085 14.0594 3.69321C14.2859 3.69163 14.5105 3.73229 14.7201 3.81309C14.922 3.8906 15.1031 4.00961 15.2504 4.16123C15.4067 4.32408 15.5268 4.51463 15.6035 4.72202C15.6924 4.96644 15.735 5.22368 15.7296 5.48203V5.48203ZM18.3691 3.94224C18.409 3.89059 18.4582 3.84583 18.5144 3.81016C18.5757 3.77634 18.646 3.7599 18.7169 3.76304H19.3913L13.877 10.7391C13.842 10.78 13.7987 10.8141 13.7498 10.8392C13.6966 10.8669 13.6365 10.8808 13.5758 10.8792H12.8813L18.3691 3.94224ZM14.9969 5.48203C15.0014 5.29426 14.9763 5.10698 14.9226 4.92612C14.8824 4.78929 14.8136 4.66147 14.7201 4.55015C14.6408 4.45679 14.5374 4.38421 14.4199 4.33921C14.184 4.25392 13.9231 4.25392 13.6872 4.33921C13.5705 4.38451 13.4679 4.45706 13.3892 4.55015C13.298 4.66205 13.2309 4.78979 13.192 4.92612C13.141 5.10744 13.1171 5.29449 13.1209 5.48203C13.1173 5.66726 13.1412 5.85213 13.192 6.0311C13.2304 6.16516 13.2976 6.29031 13.3892 6.39902C13.4693 6.48808 13.5718 6.55703 13.6872 6.59922C13.9239 6.68063 14.1833 6.68063 14.4199 6.59922C14.5359 6.55691 14.6391 6.48801 14.7201 6.39902C14.814 6.29092 14.8828 6.16568 14.9226 6.0311C14.9761 5.8526 15.0012 5.66749 14.9969 5.48203V5.48203ZM19.9025 9.20322C19.9071 9.45779 19.8606 9.71073 19.7657 9.94907C19.6825 10.1544 19.558 10.3425 19.3988 10.503C19.2498 10.6519 19.0691 10.7696 18.8686 10.8482C18.6672 10.9281 18.4509 10.9688 18.2324 10.9681C18.0055 10.9705 17.7804 10.9298 17.5706 10.8482C17.3697 10.7704 17.1889 10.6525 17.0404 10.503C16.883 10.3436 16.7627 10.1549 16.6873 9.94907C16.5991 9.70931 16.5564 9.45694 16.561 9.20322C16.5564 8.94427 16.5991 8.6863 16.6873 8.44102C16.7618 8.23176 16.8821 8.03964 17.0404 7.87705C17.1885 7.72644 17.3694 7.60784 17.5706 7.52915C17.9946 7.37031 18.4669 7.37031 18.8909 7.52915C19.0921 7.60789 19.2729 7.72649 19.4211 7.87705C19.5787 8.04018 19.6989 8.23214 19.7743 8.44102C19.8624 8.68566 19.9058 8.94266 19.9025 9.20103V9.20322ZM19.175 9.20322C19.1791 9.01488 19.1545 8.82685 19.1019 8.64512C19.0619 8.50833 18.9926 8.38071 18.8983 8.27012C18.8187 8.17749 18.7155 8.10557 18.5982 8.06113C18.3626 7.97459 18.101 7.97459 17.8654 8.06113C17.749 8.10562 17.6467 8.17758 17.5684 8.27012C17.4756 8.38086 17.408 8.50854 17.3701 8.64512C17.3194 8.82716 17.2956 9.01503 17.2992 9.20322C17.2953 9.38781 17.3191 9.57185 17.3701 9.7501C17.4092 9.88353 17.4766 10.008 17.5684 10.1161C17.6477 10.2055 17.7499 10.2743 17.8654 10.316C18.1018 10.3987 18.3618 10.3987 18.5982 10.316C18.7144 10.2741 18.8176 10.2054 18.8983 10.1161C18.9915 10.0082 19.0607 9.88373 19.1019 9.7501C19.155 9.57152 19.1796 9.38643 19.175 9.20103V9.20322Z" fill="#4198D3"/>
</svg>
