<svg width="32" height="18" viewBox="0 0 32 18" fill="none" xmlns="http://www.w3.org/2000/svg">
<path d="M1.62528 0.25H24.3792C25.1381 0.25 25.7545 0.867659 25.7545 1.62528V16.2528C25.7545 17.0119 25.1383 17.6281 24.3792 17.6281H1.62528C0.867659 17.6281 0.25 17.0117 0.25 16.2528V1.62528C0.25 0.867822 0.867822 0.25 1.62528 0.25Z" fill="white" stroke="#133F5D" stroke-width="0.5"/>
<path d="M25.4004 3.17505H0.605469V8.01309H25.4004V3.17505Z" fill="#C4E1A2"/>
<path d="M5.87765 13.8721H2.62709C2.17852 13.8721 1.81445 13.508 1.81445 13.0595C1.81445 12.6109 2.17852 12.2468 2.62709 12.2468H5.87765C6.32623 12.2468 6.69029 12.6109 6.69029 13.0595C6.69029 13.508 6.32623 13.8721 5.87765 13.8721Z" fill="#93C854"/>
<path d="M30.713 3.92971L30.7139 3.93009C30.9031 4.0103 31.0264 4.19694 31.0264 4.40428V7.47339C31.0264 9.55528 30.6426 11.1787 29.7604 12.5742C28.876 13.973 27.4753 15.1677 25.3961 16.3625C25.3165 16.4079 25.2275 16.4307 25.1382 16.4307C25.0489 16.4307 24.9599 16.4079 24.8804 16.3625C22.8012 15.1647 21.4005 13.9685 20.5161 12.5696C19.6338 11.174 19.25 9.55213 19.25 7.47339V4.40428C19.25 4.19672 19.3736 4.00998 19.5615 3.9299L19.5619 3.9297L24.9322 1.62815C24.9323 1.62811 24.9324 1.62807 24.9325 1.62804C25.0647 1.57191 25.2102 1.5719 25.3424 1.62801C25.3425 1.62806 25.3426 1.62811 25.3427 1.62815L30.713 3.92971Z" fill="#6FAFDC" stroke="#133F5D" stroke-width="0.5"/>
<path d="M24.3701 11.3099C24.3593 11.3099 24.347 11.3099 24.3378 11.3099C24.0938 11.2992 23.8683 11.1734 23.7317 10.9693L22.1971 8.66742C21.9623 8.31448 22.0575 7.83877 22.4104 7.60398C22.7603 7.37073 23.2376 7.4628 23.4739 7.81728L24.4268 9.24595L26.8392 6.22902C27.1046 5.89909 27.588 5.84691 27.9179 6.10932C28.2494 6.3748 28.3016 6.85665 28.0376 7.18811L24.9685 11.0245C24.8227 11.204 24.6018 11.3099 24.3701 11.3099Z" fill="white"/>
</svg>
