<svg width="49" height="48" viewBox="0 0 49 48" fill="none" xmlns="http://www.w3.org/2000/svg">
<path d="M42.5025 23.9718C42.5157 28.1304 41.0845 32.1623 38.4574 35.3673C38.0597 35.8433 37.6495 36.3227 37.2001 36.7716C34.6919 39.2786 31.5045 40.981 28.0392 41.6645C24.5738 42.3481 20.9854 41.9821 17.7259 40.6128C14.4663 39.2435 11.6811 36.9321 9.72114 33.9695C7.76112 31.0069 6.71384 27.5256 6.71115 23.9639C6.70665 23.097 6.77278 22.2312 6.90891 21.3751C7.57699 16.8778 9.90337 12.8006 13.4229 9.95866C16.9425 7.11679 21.3958 5.7197 25.8924 6.04678C30.389 6.37385 34.5975 8.40097 37.6764 11.7228C40.7553 15.0446 42.4777 19.4164 42.4992 23.9639L42.5025 23.9718Z" fill="#97CC56"/>
<path opacity="0.2" fill-rule="evenodd" clip-rule="evenodd" d="M38.2444 35.0986C37.8466 35.5769 37.4365 36.0564 36.9904 36.5029C34.4821 39.0097 31.2945 40.712 27.8292 41.3955C24.3639 42.0788 20.7755 41.713 17.5159 40.3437C14.2563 38.9745 11.4711 36.6631 9.51096 33.7006C7.55079 30.7382 6.50328 27.257 6.50029 23.6952C6.49506 22.8282 6.56121 21.9624 6.69805 21.1064C6.72614 21.1064 6.72615 21.0781 6.75424 21.0781C10.0443 19.446 13.8658 18.1244 18.6087 21.0498C21.0369 22.5697 21.6201 26.1978 25.4146 27.4672C28.6507 28.5644 33.1677 26.9005 36.7949 31.6031C37.5926 32.6086 38.0948 33.8196 38.2444 35.0986Z" fill="white"/>
<path d="M16.5 24.0471L22.3823 29.9806L33.5996 18.6667" stroke="white" stroke-width="2" stroke-linecap="round" stroke-linejoin="round"/>
</svg>
