<svg width="25" height="25" viewBox="0 0 25 25" fill="none" xmlns="http://www.w3.org/2000/svg">
<path opacity="0.3" d="M18.5562 20.4995C19.538 20.4995 20.334 19.7832 20.334 18.8995V17.9995C16.834 18.4995 16.834 17.9995 14.334 16.4995C9.73219 13.7384 5.83398 20.9995 4.33398 7.6996V18.8995C4.33398 19.7832 5.12992 20.4995 6.11176 20.4995H18.5562Z" fill="#4195D5"/>
<path d="M20.334 13.9995V7.6996C20.334 6.81595 19.538 6.09961 18.5562 6.09961H6.11176C5.12992 6.09961 4.33398 6.81595 4.33398 7.6996V18.8995C4.33398 19.7832 5.12992 20.4995 6.11176 20.4995H18.5562C19.538 20.4995 20.334 19.7832 20.334 18.8995V17.9995" stroke="#133F5D" stroke-linecap="round" stroke-linejoin="round"/>
<path d="M15.8887 4.5V7.69998" stroke="#133F5D" stroke-linecap="round" stroke-linejoin="round"/>
<path d="M8.77734 4.5V7.69998" stroke="#133F5D" stroke-linecap="round" stroke-linejoin="round"/>
<path d="M4.33398 10.9004H6.83398M20.334 10.9004H10.334" stroke="#133F5D" stroke-linecap="round" stroke-linejoin="round"/>
</svg>
