<svg width="32" height="32" viewBox="0 0 32 32" fill="none" xmlns="http://www.w3.org/2000/svg">
<path opacity="0.15" fill-rule="evenodd" clip-rule="evenodd" d="M4.66602 24.2661V24.3994C4.66602 25.5994 5.59935 26.5328 6.66602 26.5328H25.066C26.1327 26.5328 27.066 25.5994 27.066 24.5328V19.0661C26.3993 18.5328 25.5993 18.2661 24.7993 17.8661C22.266 17.0661 19.5993 17.1994 17.1993 18.5328C15.7327 19.7328 14.266 20.6661 12.5327 21.3328C10.266 21.9994 6.93268 19.1994 4.66602 23.1994C4.79935 23.4661 4.79935 23.8661 4.66602 24.2661Z" fill="#4199D5"/>
<path d="M27.3327 18.9326V24.1326C27.3327 25.5993 26.266 26.666 24.7994 26.666H7.19935C5.73268 26.666 4.66602 25.466 4.66602 24.1326V18.9326" stroke="#4199D5" stroke-width="1.5" stroke-linecap="round" stroke-linejoin="round"/>
<path d="M9.86523 11.7334L15.2766 6.08678C15.6703 5.67598 16.3269 5.67598 16.7206 6.08678L22.1319 11.7334" stroke="#4199D5" stroke-width="1.5" stroke-linecap="round" stroke-linejoin="round"/>
<path d="M16 6.53353V19.2002" stroke="#4199D5" stroke-width="1.5" stroke-linecap="round" stroke-linejoin="round"/>
</svg>
