<svg width="116" height="41" viewBox="0 0 116 41" fill="none" xmlns="http://www.w3.org/2000/svg">
<g clip-path="url(#clip0_1715_18077)">
<path d="M58.6831 18.1958C58.6831 16.7131 58.1881 15.6423 57.363 15.0658C56.538 14.4892 55.383 14.1597 53.898 14.1597H49.5254V27.9154H51.6704V22.3143H54.228C55.6305 22.3143 56.703 21.9848 57.5281 21.3258C58.2706 20.7492 58.6831 19.6784 58.6831 18.1958ZM56.4555 18.1958C56.4555 19.1842 56.208 19.8432 55.7955 20.1727C55.383 20.5022 54.723 20.7492 53.9805 20.6669H51.6704V15.8071H53.898C54.6405 15.8071 55.3005 15.8894 55.7955 16.2189C56.208 16.5484 56.4555 17.2074 56.4555 18.1958Z" fill="white"/>
<path d="M73.4513 27.9154L68.2537 14.1597H66.3562L60.7461 27.9154H62.9736L64.4587 24.044H69.7388L71.1413 27.9154H73.4513ZM69.1612 22.479H65.0362L67.1812 16.6308L69.1612 22.479Z" fill="white"/>
<path d="M85.5781 18.1958C85.5781 16.7131 85.0831 15.6423 84.2581 15.0658C83.433 14.4892 82.278 14.1597 80.793 14.1597H76.3379V27.9154H78.4829V22.3143H81.0405C82.443 22.3143 83.5155 21.9848 84.3406 21.3258C85.1656 20.7492 85.5781 19.6784 85.5781 18.1958ZM83.433 18.1958C83.433 19.1842 83.1855 19.8432 82.773 20.1727C82.3605 20.5022 81.7005 20.7492 80.958 20.6669H78.6479V15.8071H80.8755C81.618 15.8071 82.278 15.8894 82.773 16.2189C83.103 16.5484 83.3505 17.2074 83.433 18.1958Z" fill="white"/>
<path d="M97.1286 27.9152V26.2678H91.106V21.5727H96.4686V19.9254H91.106V15.7245H96.8811V14.0771H88.9609V27.8329H97.1286V27.9152Z" fill="white"/>
<path d="M111.32 27.9153L106.782 21.9024C108.185 21.7376 109.092 21.3258 109.67 20.5845C110.247 19.8431 110.495 19.0194 110.495 18.031C110.412 16.5483 109.917 15.4775 109.01 14.9833C108.102 14.4067 107.029 14.1596 105.874 14.242H101.172V27.9977H103.317V22.0671H104.307L108.68 27.9977H111.32V27.9153ZM108.35 18.031C108.35 18.6899 108.185 19.2665 107.855 19.6784C107.525 20.0902 106.947 20.3373 106.122 20.3373H103.399V15.807H106.122C106.864 15.807 107.442 15.9717 107.855 16.3836C108.102 16.7954 108.35 17.2897 108.35 18.031Z" fill="white"/>
<path d="M20.7835 1.07764C31.5418 1.07764 40.2331 9.76516 40.2331 20.4719C40.2331 31.1787 31.4949 39.9132 20.7835 39.9132C10.0252 39.9132 1.33398 31.2257 1.33398 20.4719C1.33398 9.76516 10.0722 1.07764 20.7835 1.07764Z" fill="white"/>
<path d="M20.7828 40.4768C9.74264 40.4768 0.769531 31.5075 0.769531 20.472C0.769531 9.43648 9.74264 0.51416 20.7828 0.51416C31.823 0.51416 40.7961 9.48344 40.7961 20.472C40.8431 31.5075 31.87 40.4768 20.7828 40.4768ZM20.7828 1.64119C10.3534 1.64119 1.89705 10.0939 1.89705 20.5189C1.89705 30.944 10.4004 39.3967 20.7828 39.3967C31.2123 39.3967 39.6686 30.944 39.6686 20.5189C39.6686 10.0939 31.2123 1.64119 20.7828 1.64119Z" fill="#4191CC"/>
<path d="M18.7821 32.3162C15.5219 29.6882 13.5237 25.4832 13.5763 21.2257C13.5763 19.4912 13.9444 17.7567 14.7332 16.285C15.5219 14.8132 16.8365 13.5517 18.3615 12.9735C20.0967 12.2902 22.0949 12.5005 23.6724 13.4466C24.4612 13.9197 25.1448 14.603 25.618 15.3914C26.0913 16.1798 26.3542 17.1259 26.4068 18.0195C26.4594 19.8066 25.6706 21.5411 24.3034 22.75C22.9889 23.9589 21.1484 24.5897 19.308 24.6948C17.152 24.7474 14.9961 23.9589 13.4712 22.5398C11.8936 21.068 10.9997 18.913 11.1049 16.8106C11.1575 15.6017 11.5255 14.4453 12.1566 13.4466C12.7876 12.3954 13.6289 11.5544 14.628 10.8711C16.6262 9.55704 19.2028 9.13655 21.6217 9.55704C24.8293 10.1352 27.7214 12.1326 29.3515 14.9709C27.774 12.1326 24.8819 10.0301 21.6743 9.45194C19.2554 9.03145 16.6788 9.39936 14.5754 10.7134C13.5237 11.3441 12.6298 12.2377 11.9462 13.2889C11.2626 14.3402 10.842 15.5491 10.7894 16.8106C10.6316 19.0707 11.5255 21.3309 13.1556 22.9077C14.7857 24.4845 17.0469 25.3255 19.3605 25.3255C21.3062 25.3255 23.2518 24.6422 24.7241 23.3282C26.1965 22.0141 27.143 20.0694 27.0904 18.072C27.0904 17.0208 26.7749 15.9696 26.249 15.0235C25.7232 14.0774 24.987 13.2889 24.0931 12.7107C22.3052 11.5544 19.939 11.3442 17.9408 12.08C16.1003 12.7633 14.628 14.1825 13.6815 15.8119C12.735 17.4939 12.3143 19.3861 12.2617 21.2783C12.1565 25.8512 14.2599 30.4766 17.8356 33.3675L18.7821 32.3162Z" fill="#4191CC"/>
<path d="M18.0454 33.6828L17.8351 33.5251C14.4171 30.7393 12.2612 26.4293 12.156 21.9615C11.0518 20.4373 10.4733 18.545 10.6311 16.7054C10.7363 15.4439 11.1569 14.1824 11.8405 13.0786C12.5241 12.0274 13.4706 11.0813 14.5749 10.398C16.0998 9.39932 17.9402 8.92627 19.8858 8.92627C20.5694 8.92627 21.2005 8.97882 21.884 9.08395C25.1968 9.71469 28.1415 11.8171 29.7716 14.7606L29.2984 15.0234C27.7209 12.2376 24.9339 10.2929 21.7789 9.71469C21.2005 9.60957 20.622 9.55698 20.0436 9.55698C18.2032 9.55698 16.4153 10.03 14.9955 10.9762C13.9965 11.6069 13.2077 12.5004 12.5767 13.4466C11.9983 14.4452 11.6302 15.549 11.5776 16.7054C11.525 17.8092 11.7353 19.0181 12.2612 20.0693C12.4189 18.3873 12.8922 16.8631 13.6284 15.549C14.68 13.7094 16.205 12.3427 18.0454 11.6594C18.8342 11.3441 19.6755 11.1864 20.5694 11.1864C21.9892 11.1864 23.3038 11.5543 24.4607 12.2902C25.4072 12.9209 26.1959 13.7094 26.7218 14.708C27.2476 15.6542 27.5631 16.7579 27.5631 17.8617C27.6157 19.8591 26.6692 21.909 25.0917 23.3281C23.6193 24.5896 21.6211 25.378 19.5178 25.378H19.4126C17.5722 25.378 15.6791 24.7998 14.2068 23.7486C14.7852 26.9549 16.5731 29.8983 19.0971 31.9482L19.3074 32.1059L18.0454 33.6828ZM12.7344 22.6974C13.0499 26.6395 14.943 30.3714 17.9403 32.8943L18.4135 32.3162C15.7317 30.1086 13.9439 26.8498 13.4706 23.3807C13.3129 23.2756 13.2077 23.1705 13.1025 23.0128C12.9448 22.9076 12.8396 22.8025 12.7344 22.6974ZM20.5694 12.2376C21.7789 12.2376 22.8831 12.553 23.8822 13.1312C24.7236 13.6568 25.4072 14.3401 25.933 15.1811C26.4588 16.0221 26.7218 16.9682 26.7743 17.9668C26.8269 19.7539 26.0382 21.6462 24.6184 22.9076C23.4616 23.9589 21.884 24.6422 20.2539 24.8524C21.9366 24.6947 23.5141 24.0114 24.671 22.9602C26.1433 21.6462 26.9847 19.8065 26.9847 17.9143C26.9847 16.9156 26.7218 15.9169 26.1959 15.0234C25.7227 14.1299 24.9865 13.394 24.1452 12.8158C23.0935 12.1325 21.884 11.8172 20.5694 11.8172C19.7807 11.8172 18.9919 11.9748 18.2558 12.2376C16.5731 12.8684 15.1007 14.1298 14.1542 15.8644C13.3129 17.3361 12.8922 19.0706 12.787 20.9629C12.9974 21.2257 13.2077 21.5411 13.418 21.8039C13.418 21.5936 13.418 21.3833 13.418 21.2257C13.418 19.3334 13.8387 17.5989 14.6275 16.1798C15.5214 14.5504 16.836 13.3414 18.4135 12.7107C19.0445 12.3953 19.7807 12.2376 20.5694 12.2376ZM13.8913 22.4346C15.3636 23.7486 17.3618 24.4845 19.4126 24.4319C21.2005 24.3794 22.9883 23.6961 24.1977 22.5923C25.5123 21.3834 26.2485 19.7014 26.1959 18.072C26.1433 17.1784 25.8804 16.3374 25.4598 15.549C24.9865 14.8132 24.3555 14.1299 23.6193 13.7094C22.7254 13.1837 21.7263 12.8684 20.622 12.8684C19.8859 12.8684 19.2023 12.9735 18.5713 13.2363C17.1515 13.7619 15.8895 14.9708 15.1007 16.4426C14.3645 17.8092 13.9965 19.4386 13.9439 21.2782C13.8913 21.6462 13.8913 22.0141 13.8913 22.4346Z" fill="#4191CC"/>
<path d="M36.5852 15.5865L30.6958 16.848L29.4863 14.2725L36.5852 15.5865Z" fill="#A2CA5E"/>
<path d="M29.3815 14.3252L28.2246 16.3226L30.1702 16.0072L29.3815 14.3252Z" fill="#A2CA5E"/>
<path d="M29.3287 14.0623L28.1719 12.2227L36.5853 15.5341L29.3287 14.0623Z" fill="#A2CA5E"/>
<path d="M12.3731 21.3641C12.702 21.8806 13.0308 22.4911 13.6886 22.7728L13.5946 22.1154C13.1718 21.5989 12.9369 21.411 12.655 21.0354C12.6081 20.9414 12.3262 20.6597 12.3262 20.6597C12.3262 20.8475 12.3731 21.1293 12.3731 21.3641Z" fill="#4191CC"/>
</g>
<defs>
<clipPath id="clip0_1715_18077">
<rect width="114.515" height="39.9611" fill="white" transform="translate(0.777344 0.519531)"/>
</clipPath>
</defs>
</svg>
