<svg width="98" height="20" viewBox="0 0 98 20" fill="none" xmlns="http://www.w3.org/2000/svg">
<g clip-path="url(#clip0_1715_18489)">
<path d="M9.04874 19.5H8.94963C8.85815 19.4775 -0.442508 18.1059 -0.000345754 4.67477C0.0110325 4.5178 0.072378 4.36833 0.174995 4.24755C0.335088 4.03769 1.9284 2.24637 8.86578 0.500016C8.98837 0.469559 9.11674 0.469559 9.23933 0.500016C16.1691 2.22388 17.7624 4.0152 17.9225 4.24755C18.0226 4.3743 18.0787 4.52931 18.0826 4.68976C18.54 18.0984 9.24695 19.4775 9.14784 19.4925L9.04874 19.5ZM1.52435 4.99706C1.26515 16.1422 8.07293 17.7836 9.04112 17.9635C10.0245 17.8136 16.8323 16.1647 16.5655 4.99706C16.0624 4.58483 14.1793 3.29568 9.04874 1.99903C3.941 3.31067 2.05037 4.59232 1.52435 4.99706Z" fill="white"/>
<path d="M7.93488 12.4921C7.83455 12.4927 7.73509 12.4738 7.64221 12.4365C7.54933 12.3992 7.46485 12.3442 7.39361 12.2748L5.60972 10.5359C5.52636 10.4693 5.45825 10.3861 5.40986 10.2919C5.36147 10.1976 5.3339 10.0943 5.32894 9.98882C5.32398 9.88333 5.34175 9.778 5.38109 9.67974C5.42042 9.58147 5.48044 9.49249 5.5572 9.41862C5.63396 9.34474 5.72573 9.28765 5.82649 9.25109C5.92726 9.21452 6.03475 9.1993 6.14192 9.20643C6.24909 9.21355 6.35351 9.24286 6.44835 9.29244C6.5432 9.34201 6.62631 9.41073 6.69225 9.49409L7.93488 10.7233L11.4341 7.28305C11.5776 7.14191 11.7723 7.06262 11.9753 7.06262C12.1783 7.06262 12.373 7.14191 12.5166 7.28305C12.6602 7.42418 12.7408 7.6156 12.7408 7.8152C12.7408 8.01479 12.6602 8.20621 12.5166 8.34735L8.50664 12.2898C8.43055 12.3602 8.34052 12.4146 8.24216 12.4494C8.1438 12.4842 8.03921 12.4987 7.93488 12.4921Z" fill="white"/>
<path d="M29.6552 6.93827V7.77022H25.9959V6.93827H27.3376V3.14576C27.3376 2.99586 27.3376 2.83847 27.3376 2.68107L26.4 3.49803C26.3519 3.53882 26.2942 3.56716 26.2322 3.58048C26.1843 3.58804 26.1354 3.58804 26.0874 3.58048C26.0381 3.56353 25.9937 3.53526 25.9578 3.49803C25.9248 3.47906 25.8963 3.45353 25.8739 3.42308L25.5156 2.9434L27.5358 1.24951H28.4659V6.93827H29.6552Z" fill="white"/>
<path d="M35.6704 4.5173C35.6809 5.02292 35.6193 5.52748 35.4875 6.01631C35.3844 6.39082 35.2083 6.74208 34.9691 7.05063C34.7707 7.31447 34.5087 7.52567 34.2067 7.66523C33.9038 7.79509 33.5766 7.86145 33.2461 7.8601C32.9156 7.86212 32.5883 7.79572 32.2856 7.66523C31.9831 7.52648 31.7209 7.31513 31.5232 7.05063C31.2843 6.74293 31.1106 6.39121 31.0125 6.01631C30.8806 5.52748 30.819 5.02292 30.8295 4.5173C30.8179 4.01163 30.8795 3.50691 31.0125 3.01828C31.1102 2.64923 31.2812 2.30281 31.5156 1.99896C31.7133 1.73446 31.9754 1.52311 32.278 1.38436C32.5801 1.25281 32.9082 1.18882 33.2385 1.19698C33.5693 1.19288 33.897 1.25937 34.1991 1.39185C34.5011 1.53141 34.7631 1.74262 34.9614 2.00645C35.2007 2.315 35.3767 2.66627 35.4798 3.04077C35.6132 3.52178 35.6774 4.01879 35.6704 4.5173ZM34.504 4.5173C34.5104 4.12495 34.4747 3.73303 34.3973 3.34807C34.351 3.08328 34.2554 2.82918 34.1152 2.59856C34.0216 2.43305 33.8813 2.2977 33.7112 2.20882C33.5642 2.13789 33.4023 2.10195 33.2385 2.10389C33.0786 2.1081 32.9219 2.14917 32.7811 2.22381C32.6133 2.31316 32.4756 2.44857 32.3847 2.61355C32.2445 2.84417 32.1489 3.09827 32.1026 3.36306C32.0344 3.74395 32.0063 4.13074 32.0188 4.5173C32.0103 4.90937 32.0435 5.30124 32.1179 5.68653C32.1641 5.95131 32.2598 6.20541 32.3999 6.43604C32.4908 6.60101 32.6286 6.73643 32.7964 6.82578C32.9443 6.894 33.1056 6.9298 33.269 6.93071C33.4324 6.9291 33.5935 6.89333 33.7417 6.82578C33.9118 6.73689 34.0521 6.60154 34.1457 6.43604C34.2859 6.20541 34.3815 5.95131 34.4278 5.68653C34.4949 5.30051 34.5205 4.90859 34.504 4.5173Z" fill="white"/>
<path d="M41.3415 4.51735C41.352 5.02297 41.2904 5.52754 41.1586 6.01636C41.0555 6.39087 40.8794 6.74214 40.6402 7.05068C40.4418 7.31452 40.1798 7.52572 39.8778 7.66528C39.5614 7.79265 39.2208 7.85144 38.8791 7.83767C38.5486 7.83969 38.2213 7.77329 37.9186 7.64279C37.6179 7.50116 37.3564 7.29034 37.1562 7.0282C36.9224 6.71846 36.7516 6.36727 36.6531 5.99388C36.5213 5.50505 36.4597 5.00048 36.4701 4.49487C36.4585 3.98919 36.5202 3.48447 36.6531 2.99585C36.763 2.63396 36.9415 2.29575 37.1791 1.99901C37.3793 1.73687 37.6408 1.52604 37.9415 1.38441C38.2366 1.25609 38.5565 1.19217 38.8791 1.19704C39.2099 1.19294 39.5376 1.25942 39.8397 1.39191C40.1417 1.53147 40.4037 1.74267 40.6021 2.0065C40.8576 2.31137 41.0493 2.66288 41.1662 3.04082C41.2944 3.52255 41.3534 4.01954 41.3415 4.51735ZM40.1751 4.51735C40.1816 4.125 40.1458 3.73308 40.0684 3.34812C40.0221 3.08334 39.9265 2.82924 39.7863 2.59861C39.6927 2.43311 39.5524 2.29776 39.3823 2.20887C39.2248 2.13836 39.0519 2.10745 38.8791 2.11893C38.7153 2.11613 38.5532 2.15212 38.4065 2.22386C38.2387 2.31321 38.1009 2.44863 38.0101 2.6136C37.8699 2.84423 37.7743 3.09833 37.728 3.36311C37.6536 3.7484 37.6204 4.14027 37.6289 4.53234C37.6204 4.92441 37.6536 5.31629 37.728 5.70157C37.7743 5.96636 37.8699 6.22046 38.0101 6.45108C38.1009 6.61606 38.2387 6.75147 38.4065 6.84082C38.5545 6.90904 38.7157 6.94484 38.8791 6.94575C39.0425 6.94414 39.2036 6.90837 39.3518 6.84082C39.5219 6.75194 39.6622 6.61659 39.7559 6.45108C39.896 6.22046 39.9917 5.96636 40.0379 5.70157C40.1266 5.31279 40.1726 4.91578 40.1751 4.51735Z" fill="white"/>
<path d="M45.3444 2.83852C45.3464 3.06711 45.3023 3.29382 45.2148 3.50558C45.1386 3.69351 45.0245 3.86433 44.8793 4.00775C44.7415 4.14768 44.5753 4.25749 44.3914 4.33004C44.2076 4.40428 44.0108 4.44247 43.812 4.44247C43.6033 4.44426 43.3961 4.40608 43.2022 4.33004C43.0097 4.26121 42.8352 4.15112 42.6914 4.00775C42.5602 3.85923 42.4616 3.68574 42.4017 3.49809C42.3231 3.28431 42.2843 3.05833 42.2874 2.83103C42.2837 2.59878 42.3224 2.36777 42.4017 2.14898C42.4683 1.96106 42.5738 1.78877 42.7116 1.643C42.8494 1.49722 43.0164 1.38112 43.2022 1.30203C43.5945 1.15225 44.0296 1.15225 44.4219 1.30203C44.6057 1.37814 44.7717 1.49036 44.9098 1.63182C45.0512 1.781 45.1602 1.95697 45.23 2.14898C45.3102 2.37013 45.349 2.60376 45.3444 2.83852ZM47.5476 1.44444C47.5878 1.39654 47.6338 1.35374 47.6848 1.31702C47.7512 1.27596 47.8274 1.2527 47.9059 1.24957H48.7292L43.8197 7.59789C43.7835 7.64734 43.7366 7.6883 43.6824 7.71781C43.6137 7.75853 43.5337 7.77689 43.4537 7.77028H42.6152L47.5476 1.44444ZM44.4982 2.83852C44.5021 2.69183 44.4841 2.54536 44.4448 2.40381C44.4153 2.30072 44.3661 2.20407 44.3 2.11899C44.2335 2.06318 44.1554 2.02225 44.0712 1.99907C43.9038 1.93954 43.7203 1.93954 43.5529 1.99907C43.4756 2.03621 43.4078 2.09002 43.3546 2.15647C43.2889 2.24077 43.2421 2.33786 43.2174 2.44128C43.1781 2.58284 43.1601 2.72931 43.1641 2.876C43.1595 3.01778 43.1775 3.15939 43.2174 3.29572C43.2431 3.39651 43.2898 3.49095 43.3546 3.57304C43.4065 3.63711 43.475 3.68629 43.5529 3.71544C43.7203 3.77498 43.9038 3.77498 44.0712 3.71544C44.1513 3.68649 44.2223 3.63739 44.2771 3.57304C44.3418 3.48985 44.3909 3.39592 44.4219 3.29572C44.4659 3.14739 44.484 2.99279 44.4753 2.83852H44.4982ZM49.0723 6.24128C49.0767 6.46937 49.0352 6.69606 48.9503 6.90834C48.8704 7.09615 48.7538 7.26675 48.6072 7.41051C48.4708 7.55208 48.3042 7.66215 48.1193 7.7328C47.9355 7.80704 47.7387 7.84523 47.5399 7.84523C47.3311 7.84702 47.124 7.80884 46.9301 7.7328C46.7485 7.66013 46.5848 7.55026 46.4498 7.41051C46.3101 7.26574 46.2013 7.09502 46.1296 6.90834C46.051 6.69457 46.0122 6.46859 46.0152 6.24128C46.0123 6.00664 46.0509 5.77329 46.1296 5.55174C46.1994 5.35973 46.3084 5.18376 46.4498 5.03458C46.5874 4.89785 46.7504 4.78843 46.9301 4.71229C47.124 4.63625 47.3311 4.59807 47.5399 4.59986C47.7488 4.59729 47.9561 4.6355 48.1498 4.71229C48.3331 4.7858 48.4992 4.89549 48.6377 5.03458C48.7791 5.18376 48.8881 5.35973 48.9579 5.55174C49.0391 5.77284 49.0804 6.0062 49.0799 6.24128H49.0723ZM48.1956 6.24128C48.1983 6.09261 48.1829 5.94416 48.1498 5.79907C48.1276 5.69981 48.0862 5.60567 48.0278 5.52176C47.9732 5.45052 47.8992 5.39595 47.8144 5.36436C47.7313 5.33471 47.6436 5.31949 47.5552 5.31939C47.4692 5.31838 47.3838 5.33365 47.3036 5.36436C47.2188 5.39595 47.1448 5.45052 47.0902 5.52176C47.0291 5.60509 46.9851 5.69927 46.9605 5.79907C46.9246 5.9438 46.9067 6.0923 46.9072 6.24128C46.9065 6.38287 46.9244 6.52395 46.9605 6.66101C46.9866 6.76029 47.0305 6.8542 47.0902 6.93832C47.1477 7.00297 47.2212 7.052 47.3036 7.08073C47.3838 7.11144 47.4692 7.12671 47.5552 7.1257C47.6436 7.1256 47.7313 7.11038 47.8144 7.08073C47.8968 7.052 47.9703 7.00297 48.0278 6.93832C48.09 6.85466 48.1365 6.76075 48.1651 6.66101C48.1957 6.52324 48.2085 6.38221 48.2032 6.24128H48.1956Z" fill="white"/>
<path d="M56.642 2.44869C56.6167 2.5028 56.5772 2.54934 56.5277 2.5836C56.4834 2.61493 56.4297 2.63076 56.3752 2.62857C56.3017 2.62458 56.2306 2.60129 56.1694 2.56111L55.9025 2.40372C55.7861 2.33958 55.6635 2.28686 55.5366 2.24632C55.23 2.16148 54.9055 2.16148 54.5989 2.24632C54.4786 2.28072 54.367 2.33943 54.2711 2.41871C54.1888 2.48835 54.1236 2.57549 54.0805 2.67354C54.0325 2.77693 54.009 2.8897 54.0119 3.00332C54.007 3.1432 54.056 3.27974 54.1491 3.38557C54.2432 3.49603 54.3601 3.58546 54.4922 3.6479C54.6506 3.72256 54.8136 3.78764 54.9801 3.84277L55.5442 4.02265C55.7348 4.09011 55.9254 4.16506 56.1084 4.2475C56.2866 4.3302 56.451 4.43885 56.5963 4.56979C56.7416 4.70592 56.8582 4.86894 56.9393 5.04948C57.034 5.26704 57.0782 5.50257 57.0689 5.73902C57.0736 6.02101 57.0218 6.30115 56.9165 6.56348C56.8187 6.81587 56.6651 7.04373 56.4667 7.23054C56.2648 7.43098 56.02 7.58461 55.7501 7.68025C55.4386 7.79635 55.1073 7.85233 54.7743 7.84514C54.5563 7.84768 54.3388 7.82504 54.1263 7.77768C53.9228 7.73964 53.7236 7.6819 53.5316 7.6053C53.3487 7.53039 53.1727 7.44012 53.0056 7.33547C52.8572 7.23415 52.7216 7.1159 52.6016 6.9832L52.9599 6.40608C52.9912 6.36183 53.0331 6.3258 53.0818 6.30115C53.127 6.27168 53.1801 6.25603 53.2343 6.25618C53.3232 6.26044 53.4085 6.29188 53.4783 6.34612C53.5697 6.41358 53.6765 6.48103 53.7985 6.55599C53.933 6.63819 54.0761 6.70603 54.2254 6.75835C54.414 6.82275 54.6128 6.85322 54.8124 6.84829C55.1122 6.87074 55.4102 6.78552 55.651 6.60845C55.7477 6.51855 55.8231 6.40883 55.8718 6.28707C55.9206 6.16531 55.9415 6.0345 55.933 5.90391C55.9431 5.75318 55.897 5.60399 55.8034 5.48419C55.7118 5.3694 55.5944 5.27705 55.4604 5.21437C55.2985 5.12415 55.1273 5.05128 54.9496 4.99701L54.3931 4.83212C54.2028 4.77203 54.0169 4.69941 53.8366 4.61476C53.6642 4.53938 53.5048 4.43825 53.3639 4.31496C53.2163 4.16911 53.0997 3.99587 53.0209 3.80529C52.9288 3.56604 52.8848 3.31151 52.8913 3.05579C52.8908 2.81859 52.9401 2.58385 53.0361 2.36624C53.1327 2.14028 53.2754 1.9362 53.4554 1.76664C53.6497 1.58772 53.8775 1.4477 54.1263 1.35441C54.4153 1.24432 54.7235 1.19085 55.0335 1.19701C55.3991 1.19443 55.7625 1.25272 56.1084 1.3694C56.4231 1.4803 56.7111 1.6538 56.9546 1.87906L56.642 2.44869Z" fill="white"/>
<path d="M59.7448 2.22387V4.03018H62.0318V4.99705H59.7448V6.80336H62.6798V7.77022H58.5098V1.24951H62.6798V2.22387H59.7448Z" fill="white"/>
<path d="M68.5346 6.23376C68.5677 6.23256 68.6006 6.23866 68.631 6.25164C68.6613 6.26461 68.6883 6.28411 68.71 6.30871L69.1979 6.82587C68.931 7.14774 68.5917 7.40431 68.2068 7.57538C67.7602 7.75705 67.2796 7.84389 66.7965 7.83021C66.3419 7.83659 65.8907 7.75246 65.47 7.58287C65.0919 7.42735 64.7515 7.1949 64.4713 6.90082C64.1859 6.59586 63.9678 6.23602 63.8309 5.84402C63.6774 5.41571 63.6025 4.96397 63.6099 4.50989C63.6031 4.05213 63.6832 3.59714 63.8462 3.16828C63.9942 2.77846 64.2232 2.42321 64.5185 2.12513C64.8138 1.82705 65.169 1.59268 65.5615 1.43692C65.9783 1.27321 66.4239 1.19172 66.8727 1.19707C67.3113 1.18744 67.7473 1.26653 68.1535 1.42942C68.5076 1.57442 68.8328 1.77997 69.114 2.03652L68.7024 2.59865C68.6732 2.63477 68.64 2.66746 68.6033 2.69609C68.5538 2.71265 68.5002 2.71265 68.4508 2.69609C68.4035 2.70962 68.3532 2.70962 68.3059 2.69609L68.1458 2.60615L67.9476 2.47873C67.8623 2.43147 67.773 2.39135 67.6808 2.35881C67.5673 2.31552 67.4499 2.2829 67.3301 2.26137C67.179 2.23648 67.026 2.22395 66.8727 2.2239C66.5927 2.2202 66.3149 2.2738 66.057 2.3813C65.812 2.47837 65.5948 2.63273 65.4243 2.831C65.2362 3.05042 65.0961 3.30555 65.0126 3.58051C64.9099 3.89262 64.8609 4.2194 64.8677 4.54737C64.8619 4.87892 64.9161 5.20885 65.0278 5.52173C65.1133 5.799 65.2589 6.05473 65.4548 6.27124C65.6296 6.46487 65.8456 6.61838 66.0875 6.72094C66.3281 6.82384 66.5875 6.87739 66.8499 6.87834C67.0022 6.8868 67.1549 6.8868 67.3073 6.87834C67.4338 6.86046 67.5587 6.83289 67.6808 6.79589C67.7951 6.75411 67.9049 6.70139 68.0086 6.63849C68.1161 6.57148 68.218 6.4963 68.3136 6.41364L68.405 6.34619C68.4344 6.29561 68.48 6.25606 68.5346 6.23376Z" fill="white"/>
<path d="M73.0706 6.79586C73.2899 6.79669 73.5074 6.75597 73.711 6.67594C73.8917 6.60228 74.0533 6.48956 74.1837 6.34616C74.3179 6.19857 74.4192 6.02494 74.481 5.83649C74.5507 5.61833 74.5841 5.39056 74.5801 5.16194V1.24951H75.8151V5.14695C75.8158 5.51242 75.7513 5.87518 75.6245 6.21874C75.5022 6.53489 75.3154 6.82311 75.0756 7.06568C74.8328 7.3116 74.539 7.50331 74.2142 7.62781C73.4747 7.88745 72.6666 7.88745 71.9271 7.62781C71.6014 7.50503 71.3072 7.31309 71.0657 7.06568C70.8234 6.82505 70.6363 6.53628 70.5168 6.21874C70.39 5.87518 70.3255 5.51242 70.3262 5.14695V1.24951H71.5612V5.15444C71.5572 5.38307 71.5906 5.61084 71.6603 5.829C71.7221 6.01966 71.8234 6.19572 71.9576 6.34616C72.088 6.48956 72.2495 6.60228 72.4303 6.67594C72.6339 6.75597 72.8513 6.79669 73.0706 6.79586Z" fill="white"/>
<path d="M82.7295 7.77017H81.6241C81.5317 7.77669 81.4393 7.75682 81.3582 7.71293C81.277 7.66905 81.2105 7.60303 81.1666 7.52283L79.7715 5.4392C79.7276 5.37359 79.6706 5.31748 79.6038 5.27431C79.5141 5.23981 79.418 5.22448 79.3218 5.22934H78.7957V7.77017H77.5684V1.24946H79.5886C79.9768 1.24257 80.3641 1.28797 80.7397 1.38437C81.0161 1.46692 81.2746 1.59906 81.5021 1.77411C81.7027 1.93059 81.86 2.13422 81.9595 2.36623C82.0555 2.60482 82.1046 2.85914 82.1043 3.11573C82.1074 3.32467 82.0739 3.53257 82.0052 3.73033C81.9422 3.92199 81.8468 4.10187 81.7232 4.26248C81.5955 4.42639 81.4409 4.56824 81.2658 4.6822C81.0736 4.80825 80.8627 4.90432 80.6406 4.96701C80.7203 5.01085 80.7945 5.06367 80.8617 5.12441C80.9326 5.18824 80.9941 5.26138 81.0447 5.34177L82.7295 7.77017ZM79.5657 4.35991C79.7727 4.36393 79.9789 4.33352 80.1756 4.26997C80.3324 4.22178 80.4777 4.14273 80.6025 4.03763C80.7117 3.93841 80.7953 3.8151 80.8465 3.67786C80.9028 3.53444 80.9312 3.3819 80.9303 3.22816C80.9367 3.08701 80.9105 2.94628 80.8538 2.81648C80.797 2.68669 80.7111 2.5712 80.6025 2.47865C80.3033 2.28339 79.9468 2.19114 79.5886 2.21632H78.8262V4.35991H79.5657Z" fill="white"/>
<path d="M85.0563 7.77022H83.8594V1.24951H85.0944L85.0563 7.77022Z" fill="white"/>
<path d="M91.4828 2.26135H89.4931V7.77022H88.2581V2.26135H86.2988V1.24951H91.4828V2.26135Z" fill="white"/>
<path d="M95.5915 5.25186V7.77021H94.3641V5.25186L91.9551 1.2495H93.0071C93.0975 1.24298 93.1872 1.26969 93.2587 1.32445C93.3263 1.37674 93.381 1.44335 93.4188 1.51932L94.6309 3.69289C94.7021 3.81781 94.7631 3.93773 94.8139 4.05265L94.9587 4.39743C94.9968 4.285 95.0426 4.17257 95.096 4.05265C95.1493 3.93273 95.2027 3.82031 95.2713 3.69289L96.4758 1.51932C96.5107 1.4479 96.5631 1.3861 96.6283 1.33944C96.6976 1.2793 96.7875 1.24716 96.8799 1.2495H97.97L95.5915 5.25186Z" fill="white"/>
<path d="M31.1111 15.1978V17.8286C30.7878 18.0674 30.4238 18.2476 30.0362 18.3608C29.6404 18.4768 29.2294 18.5348 28.8164 18.5332C28.3172 18.5403 27.8209 18.4565 27.3527 18.2858C26.9347 18.1345 26.5532 17.8997 26.232 17.5963C25.92 17.3005 25.6758 16.9428 25.5154 16.547C25.185 15.6821 25.185 14.7286 25.5154 13.8637C25.6668 13.4705 25.9005 13.113 26.2016 12.8144C26.5081 12.5129 26.8774 12.2802 27.2841 12.1324C27.7389 11.9611 28.2228 11.8772 28.7097 11.885C28.9654 11.8833 29.2207 11.9059 29.472 11.9525C29.6933 11.9885 29.9104 12.0463 30.12 12.1249C30.3128 12.1909 30.497 12.279 30.6689 12.3872C30.8286 12.4921 30.979 12.6099 31.1187 12.7395L30.768 13.2866C30.7196 13.3636 30.6433 13.4198 30.5546 13.444C30.5042 13.4543 30.4521 13.4537 30.4021 13.442C30.352 13.4303 30.3052 13.408 30.2649 13.3765L29.9599 13.2117C29.8547 13.1485 29.7421 13.0982 29.6245 13.0618C29.4903 13.0162 29.3527 12.9811 29.2128 12.9568C29.0365 12.9281 28.8579 12.9155 28.6792 12.9193C28.3767 12.9138 28.0761 12.9673 27.7949 13.0767C27.5363 13.1801 27.3046 13.3388 27.1164 13.5414C26.9232 13.7598 26.7779 14.0149 26.6895 14.2909C26.581 14.5941 26.5294 14.9141 26.537 15.2353C26.5252 15.5758 26.5742 15.9158 26.6818 16.2397C26.7778 16.5189 26.9338 16.7745 27.1392 16.9892C27.3382 17.1931 27.5802 17.3518 27.8482 17.4539C28.1454 17.5644 28.4606 17.6203 28.7783 17.6188C28.9996 17.6205 29.2202 17.5928 29.4339 17.5363C29.6281 17.4868 29.817 17.419 29.9981 17.3339V16.1122H29.1671C29.1323 16.1146 29.0974 16.1098 29.0646 16.0982C29.0318 16.0866 29.0018 16.0684 28.9765 16.0448C28.9375 16.0013 28.9158 15.9454 28.9155 15.8874V15.1978H31.1111Z" fill="white"/>
<path d="M37.1571 17.4838C37.3759 17.487 37.5933 17.4489 37.7975 17.3714C37.9767 17.295 38.1377 17.1827 38.2701 17.0416C38.3992 16.8888 38.4975 16.7133 38.5598 16.5245C38.6334 16.307 38.6695 16.079 38.6666 15.8499V11.96H39.8939V15.8499C39.8998 16.2158 39.8351 16.5794 39.7034 16.9217C39.5867 17.241 39.4021 17.5323 39.1621 17.7761C38.9175 18.0181 38.624 18.207 38.3006 18.3308C37.5626 18.5987 36.7516 18.5987 36.0136 18.3308C35.6902 18.207 35.3968 18.0181 35.1521 17.7761C34.9121 17.5323 34.7276 17.241 34.6109 16.9217C34.4791 16.5794 34.4145 16.2158 34.4203 15.8499V11.96H35.6477V15.8499C35.646 16.0789 35.682 16.3067 35.7544 16.5245C35.8162 16.7129 35.9175 16.8865 36.0517 17.0341C36.1839 17.1774 36.3448 17.2922 36.5244 17.3714C36.7261 17.4479 36.9409 17.4861 37.1571 17.4838Z" fill="white"/>
<path d="M48.9883 18.4882H48.0278C47.9328 18.4931 47.8389 18.4668 47.761 18.4133C47.6979 18.3603 47.6483 18.2935 47.6161 18.2184L47.1206 16.8918H44.3761L43.8882 18.2184C43.8546 18.2906 43.8051 18.3545 43.7434 18.4058C43.6703 18.4637 43.578 18.4931 43.4842 18.4882H42.5312L45.1309 11.99H46.3887L48.9883 18.4882ZM46.808 16.0073L46.0457 13.8413C46.0076 13.7438 45.9618 13.6314 45.9237 13.504C45.8856 13.3766 45.8322 13.2267 45.7941 13.0768C45.756 13.2267 45.7102 13.3691 45.6721 13.504C45.6352 13.6211 45.5919 13.7362 45.5425 13.8488L44.7802 16.0073H46.808Z" fill="white"/>
<path d="M57.0314 18.4882H55.9184C55.8267 18.4964 55.7345 18.4781 55.6533 18.4355C55.572 18.3928 55.5052 18.3278 55.461 18.2484L54.0735 16.1648C54.0292 16.0969 53.9691 16.0404 53.8982 15.9999C53.8119 15.9622 53.7181 15.9443 53.6237 15.9474H53.0977V18.4882H51.8398V11.96H53.8601C54.2508 11.9532 54.6406 11.9986 55.0188 12.0949C55.2963 12.1712 55.5555 12.3012 55.7812 12.4772C55.98 12.6354 56.1369 12.8385 56.2386 13.0693C56.3368 13.3072 56.3861 13.562 56.3834 13.8188C56.3865 14.0302 56.353 14.2405 56.2843 14.4409C56.2228 14.6332 56.1273 14.8133 56.0023 14.973C55.8746 15.1369 55.72 15.2788 55.5449 15.3928C55.3529 15.5143 55.1452 15.6101 54.9274 15.6776C55.0058 15.7232 55.0798 15.7759 55.1484 15.835C55.215 15.9027 55.2761 15.9754 55.3314 16.0523L57.0314 18.4882ZM53.8677 15.0855C54.0722 15.0897 54.2759 15.0592 54.4699 14.9955C54.6268 14.9413 54.7698 14.8544 54.8892 14.7407C54.9975 14.6391 55.0831 14.5167 55.1408 14.3809C55.1944 14.2344 55.2203 14.0794 55.2171 13.9237C55.2246 13.7824 55.1989 13.6414 55.1421 13.5114C55.0852 13.3814 54.9987 13.266 54.8892 13.1742C54.5921 12.9746 54.2339 12.8819 53.8753 12.9119H53.113V15.0705L53.8677 15.0855Z" fill="white"/>
<path d="M65.6077 18.4882H64.6624C64.5674 18.4931 64.4735 18.4667 64.3955 18.4132C64.3325 18.3602 64.2829 18.2935 64.2507 18.2183L63.7552 16.8917H60.9878L60.4999 18.2183C60.4663 18.2905 60.4168 18.3545 60.3551 18.4057C60.282 18.4637 60.1897 18.493 60.0959 18.4882H59.1582L61.7502 11.96H63.0081L65.6077 18.4882ZM63.435 16.0373L62.6726 13.8712C62.6726 13.7738 62.5888 13.6613 62.5507 13.5339C62.5125 13.4065 62.4592 13.2566 62.4211 13.1067C62.4211 13.2566 62.3372 13.399 62.2991 13.5339C62.2622 13.651 62.2189 13.7661 62.1695 13.8787L61.4071 16.0373H63.435Z" fill="white"/>
<path d="M74.0706 11.96V18.4882H73.4379C73.3493 18.4825 73.2632 18.4568 73.1863 18.4132C73.1107 18.3767 73.0453 18.3227 72.9957 18.2558L69.5499 13.9162C69.5605 14.1009 69.5605 14.2861 69.5499 14.4708V18.4882H68.4902V11.96H69.2526C69.2852 11.9523 69.3191 11.9523 69.3517 11.96L69.4356 12.0199C69.4715 12.0499 69.5024 12.0853 69.527 12.1248L72.9957 16.472V16.1647C72.9957 16.0598 72.9957 15.9698 72.9957 15.8799V11.96H74.0706Z" fill="white"/>
<path d="M82.334 12.9493H80.3443V18.4882H79.1321V12.9493H77.1348V11.96H82.334V12.9493Z" fill="white"/>
<path d="M86.6569 12.9193V14.7406H88.9439V15.67H86.6569V17.5063H89.5919V18.4882H85.4219V11.96H89.5919V12.9193H86.6569Z" fill="white"/>
<path d="M94.112 12.9193V14.7406H96.399V15.67H94.112V17.5063H97.047V18.4882H92.877V11.96H97.047V12.9193H94.112Z" fill="white"/>
</g>
<defs>
<clipPath id="clip0_1715_18489">
<rect width="98" height="19" fill="white" transform="translate(0 0.5)"/>
</clipPath>
</defs>
</svg>
